ply
format ascii 1.0
element vertex 38
property float x
property float y
property float z
property uchar red
property uchar green
property uchar blue
end_header
0.010736 0.791070 1.104038 255 0 0
0.755345 0.537617 0.499449 255 0 0
1.434443 0.282116 0.851671 255 0 0
-0.540896 0.439639 0.497184 255 0 0
0.045606 -0.295529 0.714040 255 0 0
0.693573 -0.013412 0.540639 255 0 0
0.001599 0.391506 0.445994 255 0 0
1.438669 -0.121943 1.168781 255 0 0
0.383952 0.570542 0.895380 255 0 0
0.135879 0.084210 1.337877 255 0 0
0.673087 0.693129 0.924776 255 0 0
0.498795 -0.339150 1.176986 255 0 0
1.126206 0.207688 0.615960 255 0 0
0.727671 0.514034 1.495439 255 0 0
0.908830 -0.302947 0.981584 255 0 0
1.431675 0.284169 1.163088 255 0 0
0.996279 0.223701 1.408436 255 0 0
0.351910 -0.328710 0.597229 255 0 0
1.190343 -0.131581 1.350498 255 0 0
-0.328208 -0.330762 1.122646 255 0 0
-0.421990 -0.451583 0.636722 255 0 0
-0.407761 0.315177 1.222011 255 0 0
0.834279 0.668161 1.188655 255 0 0
-0.278763 0.584345 0.885080 255 0 0
-0.219717 0.127801 0.414106 255 0 0
0.530611 0.129419 1.381697 255 0 0
0.427428 0.605373 1.197424 255 0 0
0.345880 0.514197 0.596463 255 0 0
0.471464 0.189038 0.492033 255 0 0
0.537310 -0.263379 0.846427 255 0 0
-0.159877 -0.206211 1.313391 255 0 0
0.995797 0.455443 0.850531 255 0 0
-0.211852 0.540682 1.179676 255 0 0
0.227981 -0.178131 0.334137 255 0 0
0.848382 0.235128 0.595781 255 0 0
-0.304270 0.060451 1.415075 255 0 0
0.352735 -0.079095 1.348088 255 0 0
0.222738 0.354194 0.456368 255 0 0
